<svg aria-hidden="true" style="position: absolute; width: 0; height: 0; overflow: hidden;" version="1.1" xmlns="http://www.w3.org/2000/svg" xmlns:xlink="http://www.w3.org/1999/xlink">
<defs>
<symbol id="icon-Button" viewBox="0 0 32 32">
<path stroke-linejoin="round" stroke-linecap="round" stroke-miterlimit="4" stroke-width="2.4" d="M25.333 5.333h-18.667c-1.473 0-2.667 1.194-2.667 2.667v18.667c0 1.473 1.194 2.667 2.667 2.667h18.667c1.473 0 2.667-1.194 2.667-2.667v-18.667c0-1.473-1.194-2.667-2.667-2.667z"></path>
<path stroke-linejoin="round" stroke-linecap="round" stroke-miterlimit="4" stroke-width="2.4" d="M21.333 2.667v5.333"></path>
<path stroke-linejoin="round" stroke-linecap="round" stroke-miterlimit="4" stroke-width="2.4" d="M10.667 2.667v5.333"></path>
<path stroke-linejoin="round" stroke-linecap="round" stroke-miterlimit="4" stroke-width="2.4" d="M4 13.333h24"></path>
</symbol>
<symbol id="icon-Button-1" viewBox="0 0 32 32">
<path d="M1.826 6.060h8.686c0.073 0 0.142-0.028 0.194-0.079l0.834-0.814c0.243-0.237 0.565-0.367 0.908-0.367h13.172c0.613 0 1.183 0.297 1.523 0.795l1.579 2.31c0.224 0.328 0.244 0.747 0.054 1.095s-0.56 0.563-0.964 0.563h-6.789v0.669h3.477c0.922 0 1.751 0.534 2.112 1.361l2.036 4.655 1.783 0.696c0.952 0.372 1.568 1.258 1.568 2.259v4.311c0 0.643-0.536 1.166-1.195 1.166h-2.075c-0.241 1.427-1.515 2.52-3.045 2.52s-2.804-1.092-3.045-2.52h-11.342c-0.241 1.427-1.515 2.52-3.045 2.52s-2.804-1.092-3.045-2.52h-4.145c-0.586 0-1.063-0.465-1.063-1.037v-15.803c0-0.982 0.819-1.781 1.826-1.781zM25.685 26.216c1.146 0 2.078-0.909 2.078-2.027s-0.932-2.027-2.078-2.027c-1.146 0-2.078 0.909-2.078 2.027s0.932 2.027 2.078 2.027zM21.024 23.696h1.615c0.004-0.025 0.009-0.049 0.014-0.073 0.003-0.017 0.006-0.033 0.010-0.050 0.008-0.039 0.017-0.077 0.027-0.115 0.002-0.008 0.004-0.016 0.006-0.024 0.012-0.046 0.025-0.091 0.040-0.136 0.004-0.013 0.009-0.026 0.013-0.039 0.010-0.032 0.021-0.063 0.033-0.094 0.006-0.017 0.013-0.033 0.020-0.050 0.010-0.027 0.021-0.054 0.033-0.081 0.007-0.018 0.015-0.035 0.023-0.052 0.011-0.026 0.023-0.050 0.035-0.076 0.009-0.018 0.017-0.035 0.027-0.053 0.012-0.024 0.025-0.048 0.038-0.072 0.009-0.017 0.019-0.035 0.029-0.052 0.013-0.024 0.027-0.047 0.042-0.070 0.010-0.017 0.020-0.033 0.030-0.050 0.015-0.024 0.031-0.047 0.046-0.070 0.010-0.015 0.021-0.031 0.031-0.046 0.017-0.025 0.036-0.049 0.054-0.074 0.009-0.013 0.019-0.026 0.028-0.039 0.025-0.032 0.050-0.063 0.076-0.094 0.004-0.005 0.007-0.009 0.011-0.014 0.030-0.035 0.061-0.070 0.092-0.104 0.010-0.011 0.020-0.020 0.030-0.031 0.022-0.023 0.044-0.046 0.067-0.069 0.013-0.013 0.026-0.025 0.039-0.037 0.021-0.020 0.042-0.039 0.063-0.059 0.014-0.013 0.029-0.025 0.043-0.038 0.021-0.018 0.042-0.036 0.063-0.054l0.046-0.037c0.021-0.017 0.043-0.034 0.065-0.050 0.016-0.012 0.032-0.024 0.048-0.035 0.022-0.016 0.045-0.032 0.068-0.047 0.016-0.011 0.032-0.022 0.048-0.032 0.024-0.016 0.048-0.031 0.073-0.046 0.016-0.009 0.031-0.019 0.048-0.029 0.027-0.016 0.054-0.031 0.082-0.046 0.014-0.008 0.028-0.016 0.042-0.023 0.039-0.020 0.078-0.040 0.118-0.059 0.003-0.001 0.006-0.003 0.009-0.004 0.043-0.020 0.086-0.039 0.13-0.057 0.014-0.006 0.029-0.011 0.043-0.017 0.030-0.012 0.060-0.024 0.091-0.035 0.017-0.006 0.035-0.012 0.052-0.018 0.028-0.009 0.056-0.019 0.084-0.028 0.019-0.006 0.038-0.011 0.057-0.017 0.027-0.008 0.055-0.016 0.082-0.023 0.020-0.005 0.040-0.010 0.060-0.015 0.027-0.007 0.055-0.013 0.083-0.018 0.020-0.004 0.040-0.009 0.061-0.013 0.028-0.005 0.057-0.010 0.085-0.015 0.020-0.004 0.040-0.007 0.060-0.009 0.029-0.004 0.059-0.008 0.090-0.011 0.019-0.002 0.038-0.005 0.058-0.006 0.033-0.003 0.067-0.006 0.1-0.007 0.017-0.001 0.033-0.003 0.049-0.003 0.050-0.003 0.1-0.004 0.151-0.004s0.101 0.001 0.151 0.004c0.017 0 0.033 0.002 0.049 0.003 0.034 0.002 0.067 0.004 0.1 0.007 0.019 0.002 0.039 0.004 0.058 0.006 0.030 0.004 0.060 0.007 0.090 0.011 0.021 0.003 0.040 0.006 0.061 0.009 0.029 0.004 0.057 0.009 0.085 0.015 0.021 0.004 0.041 0.008 0.061 0.013 0.028 0.006 0.055 0.012 0.083 0.018 0.020 0.005 0.040 0.010 0.060 0.015 0.027 0.007 0.055 0.015 0.082 0.023 0.019 0.006 0.038 0.011 0.057 0.017 0.028 0.009 0.056 0.018 0.084 0.028 0.017 0.006 0.035 0.012 0.052 0.018 0.031 0.011 0.061 0.023 0.091 0.035 0.014 0.006 0.029 0.011 0.043 0.017 0.044 0.018 0.087 0.037 0.13 0.057 0.003 0.002 0.006 0.003 0.009 0.004 0.040 0.019 0.079 0.039 0.118 0.059 0.014 0.007 0.027 0.015 0.042 0.023 0.027 0.015 0.055 0.030 0.082 0.046 0.016 0.009 0.032 0.019 0.048 0.029 0.024 0.015 0.049 0.030 0.073 0.046 0.016 0.011 0.032 0.022 0.048 0.032 0.023 0.016 0.046 0.031 0.068 0.047 0.016 0.011 0.032 0.023 0.048 0.035 0.022 0.016 0.044 0.033 0.065 0.050l0.046 0.037c0.021 0.018 0.042 0.035 0.063 0.054 0.015 0.013 0.029 0.025 0.043 0.038 0.021 0.019 0.042 0.039 0.063 0.059 0.013 0.012 0.026 0.024 0.039 0.037 0.023 0.023 0.045 0.046 0.067 0.069 0.010 0.010 0.020 0.020 0.030 0.031 0.031 0.034 0.062 0.068 0.092 0.104 0.004 0.005 0.008 0.009 0.011 0.014 0.026 0.031 0.051 0.062 0.076 0.094 0.010 0.013 0.019 0.026 0.028 0.039 0.019 0.024 0.037 0.049 0.054 0.074 0.010 0.015 0.021 0.030 0.031 0.046 0.016 0.024 0.031 0.047 0.046 0.070 0.010 0.017 0.020 0.033 0.030 0.050 0.014 0.023 0.028 0.047 0.042 0.070 0.010 0.017 0.019 0.035 0.029 0.052 0.013 0.024 0.026 0.048 0.038 0.072 0.009 0.018 0.018 0.035 0.027 0.053 0.012 0.025 0.023 0.050 0.035 0.076 0.008 0.017 0.016 0.035 0.023 0.052 0.012 0.027 0.022 0.054 0.033 0.081 0.007 0.016 0.013 0.033 0.020 0.050 0.011 0.031 0.022 0.063 0.033 0.094 0.004 0.013 0.009 0.026 0.013 0.039 0.014 0.045 0.027 0.090 0.040 0.136 0.002 0.008 0.004 0.016 0.006 0.024 0.010 0.038 0.019 0.076 0.027 0.115 0.004 0.016 0.006 0.033 0.010 0.050 0.005 0.024 0.010 0.048 0.014 0.073h2.074c0.103 0 0.186-0.082 0.186-0.182v-2.062h-0.787v-0.984h0.787v-1.264c0-0.596-0.366-1.124-0.933-1.345l-1.888-0.737h-7.146v6.574zM21.024 16.138h6.48l-1.818-4.158c-0.203-0.464-0.668-0.763-1.185-0.763h-3.477v4.921zM8.252 26.216c1.146 0 2.078-0.909 2.078-2.027s-0.932-2.027-2.078-2.027c-0.036 0-0.071 0.001-0.107 0.003-0.955 0.047-1.742 0.727-1.929 1.616-0.007 0.033-0.013 0.067-0.019 0.1-0.011 0.067-0.017 0.135-0.021 0.204-0.002 0.035-0.003 0.069-0.003 0.104 0 1.118 0.932 2.027 2.078 2.027zM1.009 20.468h0.787v0.984h-0.787v2.192c0 0.029 0.024 0.052 0.054 0.052h4.144c0.004-0.024 0.009-0.048 0.014-0.072 0.003-0.017 0.006-0.034 0.010-0.051 0.008-0.038 0.017-0.075 0.027-0.112 0.002-0.009 0.004-0.018 0.006-0.026 0.012-0.046 0.025-0.090 0.040-0.135 0.004-0.014 0.009-0.028 0.014-0.041 0.011-0.031 0.021-0.062 0.032-0.093 0.006-0.017 0.013-0.034 0.020-0.051 0.011-0.027 0.021-0.054 0.032-0.080 0.008-0.018 0.016-0.036 0.024-0.054 0.011-0.025 0.023-0.050 0.035-0.074 0.008-0.018 0.018-0.036 0.027-0.054 0.012-0.024 0.025-0.048 0.038-0.072 0.010-0.017 0.019-0.035 0.029-0.052 0.014-0.024 0.027-0.047 0.042-0.070 0.010-0.017 0.020-0.033 0.031-0.050 0.015-0.024 0.030-0.047 0.046-0.070 0.010-0.016 0.021-0.032 0.031-0.046 0.017-0.025 0.035-0.049 0.053-0.073 0.010-0.013 0.019-0.027 0.029-0.040 0.024-0.031 0.049-0.062 0.074-0.092 0.004-0.006 0.008-0.011 0.013-0.016 0.030-0.035 0.061-0.070 0.092-0.104 0.010-0.011 0.020-0.021 0.030-0.032 0.022-0.023 0.044-0.046 0.067-0.068 0.013-0.013 0.026-0.025 0.040-0.037 0.021-0.020 0.041-0.039 0.063-0.058 0.014-0.013 0.029-0.025 0.044-0.038 0.021-0.018 0.042-0.035 0.063-0.053 0.015-0.013 0.031-0.025 0.046-0.037 0.021-0.017 0.043-0.033 0.065-0.050 0.016-0.012 0.032-0.024 0.048-0.035 0.022-0.016 0.045-0.032 0.067-0.047 0.017-0.011 0.033-0.022 0.049-0.033 0.024-0.016 0.048-0.031 0.072-0.045 0.016-0.010 0.032-0.020 0.048-0.029 0.027-0.016 0.054-0.031 0.081-0.046 0.014-0.008 0.028-0.016 0.042-0.023 0.038-0.020 0.077-0.040 0.117-0.058 0.003-0.002 0.006-0.004 0.010-0.005 0.043-0.020 0.086-0.039 0.13-0.057 0.014-0.006 0.029-0.011 0.043-0.017 0.030-0.012 0.060-0.024 0.091-0.035 0.017-0.006 0.035-0.012 0.053-0.018 0.027-0.009 0.055-0.019 0.084-0.028 0.019-0.006 0.038-0.011 0.057-0.017 0.027-0.008 0.055-0.016 0.082-0.023 0.020-0.005 0.040-0.010 0.060-0.015 0.027-0.007 0.055-0.013 0.083-0.018 0.020-0.004 0.040-0.009 0.061-0.013 0.028-0.005 0.056-0.010 0.085-0.015 0.020-0.004 0.040-0.007 0.061-0.009 0.029-0.004 0.059-0.008 0.090-0.011 0.019-0.002 0.038-0.005 0.058-0.006 0.033-0.003 0.067-0.006 0.1-0.007 0.016-0.001 0.033-0.003 0.049-0.003 0.050-0.003 0.1-0.004 0.151-0.004s0.101 0.001 0.151 0.004c0.017 0 0.033 0.002 0.049 0.003 0.033 0.002 0.067 0.004 0.1 0.007 0.019 0.002 0.039 0.004 0.058 0.006 0.030 0.004 0.060 0.007 0.090 0.011 0.021 0.003 0.040 0.006 0.060 0.009 0.029 0.004 0.057 0.009 0.085 0.015 0.021 0.004 0.041 0.008 0.061 0.013 0.028 0.006 0.055 0.012 0.083 0.018 0.020 0.005 0.040 0.010 0.060 0.015 0.027 0.007 0.055 0.015 0.082 0.023 0.019 0.006 0.038 0.011 0.057 0.017 0.028 0.009 0.056 0.018 0.084 0.028 0.018 0.006 0.036 0.012 0.053 0.018 0.031 0.011 0.061 0.023 0.091 0.035 0.014 0.006 0.029 0.011 0.043 0.017 0.044 0.018 0.087 0.037 0.13 0.057 0.004 0.002 0.007 0.003 0.010 0.005 0.040 0.019 0.078 0.038 0.117 0.058 0.014 0.007 0.028 0.015 0.042 0.023 0.027 0.015 0.054 0.030 0.081 0.046 0.016 0.009 0.032 0.019 0.048 0.029 0.024 0.015 0.048 0.030 0.072 0.045 0.016 0.011 0.032 0.022 0.049 0.033 0.023 0.015 0.045 0.031 0.067 0.047 0.016 0.011 0.032 0.023 0.048 0.035 0.022 0.016 0.044 0.033 0.065 0.050 0.016 0.012 0.031 0.025 0.046 0.037 0.021 0.017 0.042 0.035 0.063 0.053 0.015 0.013 0.029 0.025 0.044 0.038 0.021 0.019 0.042 0.039 0.063 0.059 0.013 0.012 0.026 0.024 0.039 0.037 0.023 0.022 0.045 0.046 0.067 0.069 0.010 0.010 0.020 0.020 0.030 0.031 0.031 0.034 0.062 0.068 0.092 0.104 0.004 0.005 0.008 0.010 0.012 0.015 0.025 0.031 0.051 0.062 0.075 0.094 0.010 0.013 0.019 0.026 0.029 0.039 0.018 0.024 0.036 0.049 0.054 0.074 0.010 0.015 0.021 0.031 0.031 0.046 0.016 0.023 0.031 0.046 0.046 0.070 0.010 0.017 0.021 0.033 0.031 0.050 0.014 0.023 0.028 0.047 0.042 0.070 0.010 0.017 0.019 0.035 0.029 0.052 0.013 0.024 0.026 0.048 0.038 0.072 0.009 0.018 0.017 0.035 0.026 0.053 0.012 0.025 0.023 0.050 0.035 0.076 0.008 0.017 0.016 0.035 0.023 0.052 0.012 0.027 0.022 0.054 0.033 0.081 0.006 0.016 0.013 0.033 0.019 0.050 0.012 0.031 0.022 0.063 0.033 0.095 0.004 0.013 0.009 0.026 0.013 0.039 0.014 0.045 0.027 0.091 0.040 0.136 0.002 0.007 0.003 0.015 0.005 0.022 0.010 0.039 0.019 0.078 0.028 0.117 0.004 0.016 0.006 0.032 0.009 0.048 0.005 0.025 0.010 0.049 0.015 0.074h8.717v-14.625c0-0.272 0.226-0.492 0.504-0.492h7.293c0.012 0 0.051 0 0.075-0.044s0.003-0.074-0.004-0.084l-1.578-2.31c-0.153-0.224-0.408-0.357-0.684-0.357h-13.172c-0.073 0-0.142 0.028-0.195 0.079l-0.834 0.814c-0.242 0.237-0.565 0.367-0.908 0.367h-8.686c-0.45 0-0.817 0.357-0.817 0.797v12.627z"></path>
<path d="M14.081 9.838h3.191c0.644 0 1.169 0.511 1.169 1.14v10.532c0 0.272-0.226 0.492-0.504 0.492h-4.52c-0.278 0-0.504-0.22-0.504-0.492v-10.532c-0-0.629 0.524-1.14 1.169-1.14zM13.921 21.019h3.511v-5.787h-3.511v5.787zM13.921 14.248h3.511v-3.269c0-0.086-0.072-0.156-0.16-0.156h-3.191c-0.088 0-0.16 0.070-0.16 0.156l0 3.269z"></path>
</symbol>
<symbol id="icon-Button-2" viewBox="0 0 32 32">
<path d="M1.826 6.060h8.686c0.073 0 0.142-0.028 0.194-0.079l0.834-0.814c0.243-0.237 0.565-0.367 0.908-0.367h13.172c0.613 0 1.183 0.297 1.523 0.795l1.579 2.31c0.224 0.328 0.244 0.747 0.054 1.095s-0.56 0.563-0.964 0.563h-6.789v0.669h3.477c0.922 0 1.751 0.534 2.112 1.361l2.036 4.655 1.783 0.696c0.952 0.372 1.568 1.258 1.568 2.259v4.311c0 0.643-0.536 1.166-1.195 1.166h-2.075c-0.241 1.427-1.515 2.52-3.045 2.52s-2.804-1.092-3.045-2.52h-11.342c-0.241 1.427-1.515 2.52-3.045 2.52s-2.804-1.092-3.045-2.52h-4.145c-0.586 0-1.063-0.465-1.063-1.037v-15.803c0-0.982 0.819-1.781 1.826-1.781zM25.685 26.216c1.146 0 2.078-0.909 2.078-2.027s-0.932-2.027-2.078-2.027c-1.146 0-2.078 0.909-2.078 2.027s0.932 2.027 2.078 2.027zM21.024 23.696h1.615c0.004-0.025 0.009-0.049 0.014-0.073 0.003-0.017 0.006-0.033 0.010-0.050 0.008-0.039 0.017-0.077 0.027-0.115 0.002-0.008 0.004-0.016 0.006-0.024 0.012-0.046 0.025-0.091 0.040-0.136 0.004-0.013 0.009-0.026 0.013-0.039 0.010-0.032 0.021-0.063 0.033-0.094 0.006-0.017 0.013-0.033 0.020-0.050 0.010-0.027 0.021-0.054 0.033-0.081 0.007-0.018 0.015-0.035 0.023-0.052 0.011-0.026 0.023-0.050 0.035-0.076 0.009-0.018 0.017-0.035 0.027-0.053 0.012-0.024 0.025-0.048 0.038-0.072 0.009-0.017 0.019-0.035 0.029-0.052 0.013-0.024 0.027-0.047 0.042-0.070 0.010-0.017 0.020-0.033 0.030-0.050 0.015-0.024 0.031-0.047 0.046-0.070 0.010-0.015 0.021-0.031 0.031-0.046 0.017-0.025 0.036-0.049 0.054-0.074 0.009-0.013 0.019-0.026 0.028-0.039 0.025-0.032 0.050-0.063 0.076-0.094 0.004-0.005 0.007-0.009 0.011-0.014 0.030-0.035 0.061-0.070 0.092-0.104 0.010-0.011 0.020-0.020 0.030-0.031 0.022-0.023 0.044-0.046 0.067-0.069 0.013-0.013 0.026-0.025 0.039-0.037 0.021-0.020 0.042-0.039 0.063-0.059 0.014-0.013 0.029-0.025 0.043-0.038 0.021-0.018 0.042-0.036 0.063-0.054l0.046-0.037c0.021-0.017 0.043-0.034 0.065-0.050 0.016-0.012 0.032-0.024 0.048-0.035 0.022-0.016 0.045-0.032 0.068-0.047 0.016-0.011 0.032-0.022 0.048-0.032 0.024-0.016 0.048-0.031 0.073-0.046 0.016-0.009 0.031-0.019 0.048-0.029 0.027-0.016 0.054-0.031 0.082-0.046 0.014-0.008 0.028-0.016 0.042-0.023 0.039-0.020 0.078-0.040 0.118-0.059 0.003-0.001 0.006-0.003 0.009-0.004 0.043-0.020 0.086-0.039 0.13-0.057 0.014-0.006 0.029-0.011 0.043-0.017 0.030-0.012 0.060-0.024 0.091-0.035 0.017-0.006 0.035-0.012 0.052-0.018 0.028-0.009 0.056-0.019 0.084-0.028 0.019-0.006 0.038-0.011 0.057-0.017 0.027-0.008 0.055-0.016 0.082-0.023 0.020-0.005 0.040-0.010 0.060-0.015 0.027-0.007 0.055-0.013 0.083-0.018 0.020-0.004 0.040-0.009 0.061-0.013 0.028-0.005 0.057-0.010 0.085-0.015 0.020-0.004 0.040-0.007 0.060-0.009 0.029-0.004 0.059-0.008 0.090-0.011 0.019-0.002 0.038-0.005 0.058-0.006 0.033-0.003 0.067-0.006 0.1-0.007 0.017-0.001 0.033-0.003 0.049-0.003 0.050-0.003 0.1-0.004 0.151-0.004s0.101 0.001 0.151 0.004c0.017 0 0.033 0.002 0.049 0.003 0.034 0.002 0.067 0.004 0.1 0.007 0.019 0.002 0.039 0.004 0.058 0.006 0.030 0.004 0.060 0.007 0.090 0.011 0.021 0.003 0.040 0.006 0.061 0.009 0.029 0.004 0.057 0.009 0.085 0.015 0.021 0.004 0.041 0.008 0.061 0.013 0.028 0.006 0.055 0.012 0.083 0.018 0.020 0.005 0.040 0.010 0.060 0.015 0.027 0.007 0.055 0.015 0.082 0.023 0.019 0.006 0.038 0.011 0.057 0.017 0.028 0.009 0.056 0.018 0.084 0.028 0.017 0.006 0.035 0.012 0.052 0.018 0.031 0.011 0.061 0.023 0.091 0.035 0.014 0.006 0.029 0.011 0.043 0.017 0.044 0.018 0.087 0.037 0.13 0.057 0.003 0.002 0.006 0.003 0.009 0.004 0.040 0.019 0.079 0.039 0.118 0.059 0.014 0.007 0.027 0.015 0.042 0.023 0.027 0.015 0.055 0.030 0.082 0.046 0.016 0.009 0.032 0.019 0.048 0.029 0.024 0.015 0.049 0.030 0.073 0.046 0.016 0.011 0.032 0.022 0.048 0.032 0.023 0.016 0.046 0.031 0.068 0.047 0.016 0.011 0.032 0.023 0.048 0.035 0.022 0.016 0.044 0.033 0.065 0.050l0.046 0.037c0.021 0.018 0.042 0.035 0.063 0.054 0.015 0.013 0.029 0.025 0.043 0.038 0.021 0.019 0.042 0.039 0.063 0.059 0.013 0.012 0.026 0.024 0.039 0.037 0.023 0.023 0.045 0.046 0.067 0.069 0.010 0.010 0.020 0.020 0.030 0.031 0.031 0.034 0.062 0.068 0.092 0.104 0.004 0.005 0.008 0.009 0.011 0.014 0.026 0.031 0.051 0.062 0.076 0.094 0.010 0.013 0.019 0.026 0.028 0.039 0.019 0.024 0.037 0.049 0.054 0.074 0.010 0.015 0.021 0.030 0.031 0.046 0.016 0.024 0.031 0.047 0.046 0.070 0.010 0.017 0.020 0.033 0.030 0.050 0.014 0.023 0.028 0.047 0.042 0.070 0.010 0.017 0.019 0.035 0.029 0.052 0.013 0.024 0.026 0.048 0.038 0.072 0.009 0.018 0.018 0.035 0.027 0.053 0.012 0.025 0.023 0.050 0.035 0.076 0.008 0.017 0.016 0.035 0.023 0.052 0.012 0.027 0.022 0.054 0.033 0.081 0.007 0.016 0.013 0.033 0.020 0.050 0.011 0.031 0.022 0.063 0.033 0.094 0.004 0.013 0.009 0.026 0.013 0.039 0.014 0.045 0.027 0.090 0.040 0.136 0.002 0.008 0.004 0.016 0.006 0.024 0.010 0.038 0.019 0.076 0.027 0.115 0.004 0.016 0.006 0.033 0.010 0.050 0.005 0.024 0.010 0.048 0.014 0.073h2.074c0.103 0 0.186-0.082 0.186-0.182v-2.062h-0.787v-0.984h0.787v-1.264c0-0.596-0.366-1.124-0.933-1.345l-1.888-0.737h-7.146v6.574zM21.024 16.138h6.48l-1.818-4.158c-0.203-0.464-0.668-0.763-1.185-0.763h-3.477v4.921zM8.252 26.216c1.146 0 2.078-0.909 2.078-2.027s-0.932-2.027-2.078-2.027c-0.036 0-0.071 0.001-0.107 0.003-0.955 0.047-1.742 0.727-1.929 1.616-0.007 0.033-0.013 0.067-0.019 0.1-0.011 0.067-0.017 0.135-0.021 0.204-0.002 0.035-0.003 0.069-0.003 0.104 0 1.118 0.932 2.027 2.078 2.027zM1.009 20.468h0.787v0.984h-0.787v2.192c0 0.029 0.024 0.052 0.054 0.052h4.144c0.004-0.024 0.009-0.048 0.014-0.072 0.003-0.017 0.006-0.034 0.010-0.051 0.008-0.038 0.017-0.075 0.027-0.112 0.002-0.009 0.004-0.018 0.006-0.026 0.012-0.046 0.025-0.090 0.040-0.135 0.004-0.014 0.009-0.028 0.014-0.041 0.011-0.031 0.021-0.062 0.032-0.093 0.006-0.017 0.013-0.034 0.020-0.051 0.011-0.027 0.021-0.054 0.032-0.080 0.008-0.018 0.016-0.036 0.024-0.054 0.011-0.025 0.023-0.050 0.035-0.074 0.008-0.018 0.018-0.036 0.027-0.054 0.012-0.024 0.025-0.048 0.038-0.072 0.010-0.017 0.019-0.035 0.029-0.052 0.014-0.024 0.027-0.047 0.042-0.070 0.010-0.017 0.020-0.033 0.031-0.050 0.015-0.024 0.030-0.047 0.046-0.070 0.010-0.016 0.021-0.032 0.031-0.046 0.017-0.025 0.035-0.049 0.053-0.073 0.010-0.013 0.019-0.027 0.029-0.040 0.024-0.031 0.049-0.062 0.074-0.092 0.004-0.006 0.008-0.011 0.013-0.016 0.030-0.035 0.061-0.070 0.092-0.104 0.010-0.011 0.020-0.021 0.030-0.032 0.022-0.023 0.044-0.046 0.067-0.068 0.013-0.013 0.026-0.025 0.040-0.037 0.021-0.020 0.041-0.039 0.063-0.058 0.014-0.013 0.029-0.025 0.044-0.038 0.021-0.018 0.042-0.035 0.063-0.053 0.015-0.013 0.031-0.025 0.046-0.037 0.021-0.017 0.043-0.033 0.065-0.050 0.016-0.012 0.032-0.024 0.048-0.035 0.022-0.016 0.045-0.032 0.067-0.047 0.017-0.011 0.033-0.022 0.049-0.033 0.024-0.016 0.048-0.031 0.072-0.045 0.016-0.010 0.032-0.020 0.048-0.029 0.027-0.016 0.054-0.031 0.081-0.046 0.014-0.008 0.028-0.016 0.042-0.023 0.038-0.020 0.077-0.040 0.117-0.058 0.003-0.002 0.006-0.004 0.010-0.005 0.043-0.020 0.086-0.039 0.13-0.057 0.014-0.006 0.029-0.011 0.043-0.017 0.030-0.012 0.060-0.024 0.091-0.035 0.017-0.006 0.035-0.012 0.053-0.018 0.027-0.009 0.055-0.019 0.084-0.028 0.019-0.006 0.038-0.011 0.057-0.017 0.027-0.008 0.055-0.016 0.082-0.023 0.020-0.005 0.040-0.010 0.060-0.015 0.027-0.007 0.055-0.013 0.083-0.018 0.020-0.004 0.040-0.009 0.061-0.013 0.028-0.005 0.056-0.010 0.085-0.015 0.020-0.004 0.040-0.007 0.061-0.009 0.029-0.004 0.059-0.008 0.090-0.011 0.019-0.002 0.038-0.005 0.058-0.006 0.033-0.003 0.067-0.006 0.1-0.007 0.016-0.001 0.033-0.003 0.049-0.003 0.050-0.003 0.1-0.004 0.151-0.004s0.101 0.001 0.151 0.004c0.017 0 0.033 0.002 0.049 0.003 0.033 0.002 0.067 0.004 0.1 0.007 0.019 0.002 0.039 0.004 0.058 0.006 0.030 0.004 0.060 0.007 0.090 0.011 0.021 0.003 0.040 0.006 0.060 0.009 0.029 0.004 0.057 0.009 0.085 0.015 0.021 0.004 0.041 0.008 0.061 0.013 0.028 0.006 0.055 0.012 0.083 0.018 0.020 0.005 0.040 0.010 0.060 0.015 0.027 0.007 0.055 0.015 0.082 0.023 0.019 0.006 0.038 0.011 0.057 0.017 0.028 0.009 0.056 0.018 0.084 0.028 0.018 0.006 0.036 0.012 0.053 0.018 0.031 0.011 0.061 0.023 0.091 0.035 0.014 0.006 0.029 0.011 0.043 0.017 0.044 0.018 0.087 0.037 0.13 0.057 0.004 0.002 0.007 0.003 0.010 0.005 0.040 0.019 0.078 0.038 0.117 0.058 0.014 0.007 0.028 0.015 0.042 0.023 0.027 0.015 0.054 0.030 0.081 0.046 0.016 0.009 0.032 0.019 0.048 0.029 0.024 0.015 0.048 0.030 0.072 0.045 0.016 0.011 0.032 0.022 0.049 0.033 0.023 0.015 0.045 0.031 0.067 0.047 0.016 0.011 0.032 0.023 0.048 0.035 0.022 0.016 0.044 0.033 0.065 0.050 0.016 0.012 0.031 0.025 0.046 0.037 0.021 0.017 0.042 0.035 0.063 0.053 0.015 0.013 0.029 0.025 0.044 0.038 0.021 0.019 0.042 0.039 0.063 0.059 0.013 0.012 0.026 0.024 0.039 0.037 0.023 0.022 0.045 0.046 0.067 0.069 0.010 0.010 0.020 0.020 0.030 0.031 0.031 0.034 0.062 0.068 0.092 0.104 0.004 0.005 0.008 0.010 0.012 0.015 0.025 0.031 0.051 0.062 0.075 0.094 0.010 0.013 0.019 0.026 0.029 0.039 0.018 0.024 0.036 0.049 0.054 0.074 0.010 0.015 0.021 0.031 0.031 0.046 0.016 0.023 0.031 0.046 0.046 0.070 0.010 0.017 0.021 0.033 0.031 0.050 0.014 0.023 0.028 0.047 0.042 0.070 0.010 0.017 0.019 0.035 0.029 0.052 0.013 0.024 0.026 0.048 0.038 0.072 0.009 0.018 0.017 0.035 0.026 0.053 0.012 0.025 0.023 0.050 0.035 0.076 0.008 0.017 0.016 0.035 0.023 0.052 0.012 0.027 0.022 0.054 0.033 0.081 0.006 0.016 0.013 0.033 0.019 0.050 0.012 0.031 0.022 0.063 0.033 0.095 0.004 0.013 0.009 0.026 0.013 0.039 0.014 0.045 0.027 0.091 0.040 0.136 0.002 0.007 0.003 0.015 0.005 0.022 0.010 0.039 0.019 0.078 0.028 0.117 0.004 0.016 0.006 0.032 0.009 0.048 0.005 0.025 0.010 0.049 0.015 0.074h8.717v-14.625c0-0.272 0.226-0.492 0.504-0.492h7.293c0.012 0 0.051 0 0.075-0.044s0.003-0.074-0.004-0.084l-1.578-2.31c-0.153-0.224-0.408-0.357-0.684-0.357h-13.172c-0.073 0-0.142 0.028-0.195 0.079l-0.834 0.814c-0.242 0.237-0.565 0.367-0.908 0.367h-8.686c-0.45 0-0.817 0.357-0.817 0.797v12.627z"></path>
<path d="M3.875 9.838h6.17c0.713 0 1.293 0.566 1.293 1.262v2.87c0 0.696-0.58 1.262-1.293 1.262h-6.17c-0.713 0-1.293-0.566-1.293-1.262v-2.87c0-0.696 0.581-1.262 1.294-1.262zM3.591 13.97c0 0.153 0.127 0.278 0.284 0.278h6.17c0.157 0 0.284-0.124 0.284-0.278v-2.87c0-0.153-0.128-0.278-0.284-0.278h-6.17c-0.157 0-0.284 0.124-0.284 0.278l0 2.87z"></path>
</symbol>
<symbol id="icon-camper" viewBox="0 0 32 32">
<path d="M1.826 6.060h8.686c0.073 0 0.142-0.028 0.194-0.079l0.834-0.814c0.243-0.237 0.565-0.367 0.908-0.367h13.172c0.613 0 1.183 0.297 1.523 0.795l1.579 2.31c0.224 0.328 0.244 0.747 0.054 1.095s-0.56 0.563-0.964 0.563h-6.789v0.669h3.477c0.922 0 1.751 0.534 2.112 1.361l2.036 4.655 1.783 0.696c0.952 0.372 1.568 1.258 1.568 2.259v4.311c0 0.643-0.536 1.166-1.195 1.166h-2.075c-0.241 1.427-1.515 2.52-3.045 2.52s-2.804-1.092-3.045-2.52h-11.342c-0.241 1.427-1.515 2.52-3.045 2.52s-2.804-1.092-3.045-2.52h-4.145c-0.586 0-1.063-0.465-1.063-1.037v-15.803c0-0.982 0.819-1.781 1.826-1.781zM25.685 26.216c1.146 0 2.078-0.909 2.078-2.027s-0.932-2.027-2.078-2.027c-1.146 0-2.078 0.909-2.078 2.027s0.932 2.027 2.078 2.027zM21.024 23.696h1.615c0.004-0.025 0.009-0.049 0.014-0.073 0.003-0.017 0.006-0.033 0.010-0.050 0.008-0.039 0.017-0.077 0.027-0.115 0.002-0.008 0.004-0.016 0.006-0.024 0.012-0.046 0.025-0.091 0.040-0.136 0.004-0.013 0.009-0.026 0.013-0.039 0.010-0.032 0.021-0.063 0.033-0.094 0.006-0.017 0.013-0.033 0.020-0.050 0.010-0.027 0.021-0.054 0.033-0.081 0.007-0.018 0.015-0.035 0.023-0.052 0.011-0.026 0.023-0.050 0.035-0.076 0.009-0.018 0.017-0.035 0.027-0.053 0.012-0.024 0.025-0.048 0.038-0.072 0.009-0.017 0.019-0.035 0.029-0.052 0.013-0.024 0.027-0.047 0.042-0.070 0.010-0.017 0.020-0.033 0.030-0.050 0.015-0.024 0.031-0.047 0.046-0.070 0.010-0.015 0.021-0.031 0.031-0.046 0.017-0.025 0.036-0.049 0.054-0.074 0.009-0.013 0.019-0.026 0.028-0.039 0.025-0.032 0.050-0.063 0.076-0.094 0.004-0.005 0.007-0.009 0.011-0.014 0.030-0.035 0.061-0.070 0.092-0.104 0.010-0.011 0.020-0.020 0.030-0.031 0.022-0.023 0.044-0.046 0.067-0.069 0.013-0.013 0.026-0.025 0.039-0.037 0.021-0.020 0.042-0.039 0.063-0.059 0.014-0.013 0.029-0.025 0.043-0.038 0.021-0.018 0.042-0.036 0.063-0.054l0.046-0.037c0.021-0.017 0.043-0.034 0.065-0.050 0.016-0.012 0.032-0.024 0.048-0.035 0.022-0.016 0.045-0.032 0.068-0.047 0.016-0.011 0.032-0.022 0.048-0.032 0.024-0.016 0.048-0.031 0.073-0.046 0.016-0.009 0.031-0.019 0.048-0.029 0.027-0.016 0.054-0.031 0.082-0.046 0.014-0.008 0.028-0.016 0.042-0.023 0.039-0.020 0.078-0.040 0.118-0.059 0.003-0.001 0.006-0.003 0.009-0.004 0.043-0.020 0.086-0.039 0.13-0.057 0.014-0.006 0.029-0.011 0.043-0.017 0.030-0.012 0.060-0.024 0.091-0.035 0.017-0.006 0.035-0.012 0.052-0.018 0.028-0.009 0.056-0.019 0.084-0.028 0.019-0.006 0.038-0.011 0.057-0.017 0.027-0.008 0.055-0.016 0.082-0.023 0.020-0.005 0.040-0.010 0.060-0.015 0.027-0.007 0.055-0.013 0.083-0.018 0.020-0.004 0.040-0.009 0.061-0.013 0.028-0.005 0.057-0.010 0.085-0.015 0.020-0.004 0.040-0.007 0.060-0.009 0.029-0.004 0.059-0.008 0.090-0.011 0.019-0.002 0.038-0.005 0.058-0.006 0.033-0.003 0.067-0.006 0.1-0.007 0.017-0.001 0.033-0.003 0.049-0.003 0.050-0.003 0.1-0.004 0.151-0.004s0.101 0.001 0.151 0.004c0.017 0 0.033 0.002 0.049 0.003 0.034 0.002 0.067 0.004 0.1 0.007 0.019 0.002 0.039 0.004 0.058 0.006 0.030 0.004 0.060 0.007 0.090 0.011 0.021 0.003 0.040 0.006 0.061 0.009 0.029 0.004 0.057 0.009 0.085 0.015 0.021 0.004 0.041 0.008 0.061 0.013 0.028 0.006 0.055 0.012 0.083 0.018 0.020 0.005 0.040 0.010 0.060 0.015 0.027 0.007 0.055 0.015 0.082 0.023 0.019 0.006 0.038 0.011 0.057 0.017 0.028 0.009 0.056 0.018 0.084 0.028 0.017 0.006 0.035 0.012 0.052 0.018 0.031 0.011 0.061 0.023 0.091 0.035 0.014 0.006 0.029 0.011 0.043 0.017 0.044 0.018 0.087 0.037 0.13 0.057 0.003 0.002 0.006 0.003 0.009 0.004 0.040 0.019 0.079 0.039 0.118 0.059 0.014 0.007 0.027 0.015 0.042 0.023 0.027 0.015 0.055 0.030 0.082 0.046 0.016 0.009 0.032 0.019 0.048 0.029 0.024 0.015 0.049 0.030 0.073 0.046 0.016 0.011 0.032 0.022 0.048 0.032 0.023 0.016 0.046 0.031 0.068 0.047 0.016 0.011 0.032 0.023 0.048 0.035 0.022 0.016 0.044 0.033 0.065 0.050l0.046 0.037c0.021 0.018 0.042 0.035 0.063 0.054 0.015 0.013 0.029 0.025 0.043 0.038 0.021 0.019 0.042 0.039 0.063 0.059 0.013 0.012 0.026 0.024 0.039 0.037 0.023 0.023 0.045 0.046 0.067 0.069 0.010 0.010 0.020 0.020 0.030 0.031 0.031 0.034 0.062 0.068 0.092 0.104 0.004 0.005 0.008 0.009 0.011 0.014 0.026 0.031 0.051 0.062 0.076 0.094 0.010 0.013 0.019 0.026 0.028 0.039 0.019 0.024 0.037 0.049 0.054 0.074 0.010 0.015 0.021 0.030 0.031 0.046 0.016 0.024 0.031 0.047 0.046 0.070 0.010 0.017 0.020 0.033 0.030 0.050 0.014 0.023 0.028 0.047 0.042 0.070 0.010 0.017 0.019 0.035 0.029 0.052 0.013 0.024 0.026 0.048 0.038 0.072 0.009 0.018 0.018 0.035 0.027 0.053 0.012 0.025 0.023 0.050 0.035 0.076 0.008 0.017 0.016 0.035 0.023 0.052 0.012 0.027 0.022 0.054 0.033 0.081 0.007 0.016 0.013 0.033 0.020 0.050 0.011 0.031 0.022 0.063 0.033 0.094 0.004 0.013 0.009 0.026 0.013 0.039 0.014 0.045 0.027 0.090 0.040 0.136 0.002 0.008 0.004 0.016 0.006 0.024 0.010 0.038 0.019 0.076 0.027 0.115 0.004 0.016 0.006 0.033 0.010 0.050 0.005 0.024 0.010 0.048 0.014 0.073h2.074c0.103 0 0.186-0.082 0.186-0.182v-2.062h-0.787v-0.984h0.787v-1.264c0-0.596-0.366-1.124-0.933-1.345l-1.888-0.737h-7.146v6.574zM21.024 16.138h6.48l-1.818-4.158c-0.203-0.464-0.668-0.763-1.185-0.763h-3.477v4.921zM8.252 26.216c1.146 0 2.078-0.909 2.078-2.027s-0.932-2.027-2.078-2.027c-0.036 0-0.071 0.001-0.107 0.003-0.955 0.047-1.742 0.727-1.929 1.616-0.007 0.033-0.013 0.067-0.019 0.1-0.011 0.067-0.017 0.135-0.021 0.204-0.002 0.035-0.003 0.069-0.003 0.104 0 1.118 0.932 2.027 2.078 2.027zM1.009 20.468h0.787v0.984h-0.787v2.192c0 0.029 0.024 0.052 0.054 0.052h4.144c0.004-0.024 0.009-0.048 0.014-0.072 0.003-0.017 0.006-0.034 0.010-0.051 0.008-0.038 0.017-0.075 0.027-0.112 0.002-0.009 0.004-0.018 0.006-0.026 0.012-0.046 0.025-0.090 0.040-0.135 0.004-0.014 0.009-0.028 0.014-0.041 0.011-0.031 0.021-0.062 0.032-0.093 0.006-0.017 0.013-0.034 0.020-0.051 0.011-0.027 0.021-0.054 0.032-0.080 0.008-0.018 0.016-0.036 0.024-0.054 0.011-0.025 0.023-0.050 0.035-0.074 0.008-0.018 0.018-0.036 0.027-0.054 0.012-0.024 0.025-0.048 0.038-0.072 0.010-0.017 0.019-0.035 0.029-0.052 0.014-0.024 0.027-0.047 0.042-0.070 0.010-0.017 0.020-0.033 0.031-0.050 0.015-0.024 0.030-0.047 0.046-0.070 0.010-0.016 0.021-0.032 0.031-0.046 0.017-0.025 0.035-0.049 0.053-0.073 0.010-0.013 0.019-0.027 0.029-0.040 0.024-0.031 0.049-0.062 0.074-0.092 0.004-0.006 0.008-0.011 0.013-0.016 0.030-0.035 0.061-0.070 0.092-0.104 0.010-0.011 0.020-0.021 0.030-0.032 0.022-0.023 0.044-0.046 0.067-0.068 0.013-0.013 0.026-0.025 0.040-0.037 0.021-0.020 0.041-0.039 0.063-0.058 0.014-0.013 0.029-0.025 0.044-0.038 0.021-0.018 0.042-0.035 0.063-0.053 0.015-0.013 0.031-0.025 0.046-0.037 0.021-0.017 0.043-0.033 0.065-0.050 0.016-0.012 0.032-0.024 0.048-0.035 0.022-0.016 0.045-0.032 0.067-0.047 0.017-0.011 0.033-0.022 0.049-0.033 0.024-0.016 0.048-0.031 0.072-0.045 0.016-0.010 0.032-0.020 0.048-0.029 0.027-0.016 0.054-0.031 0.081-0.046 0.014-0.008 0.028-0.016 0.042-0.023 0.038-0.020 0.077-0.040 0.117-0.058 0.003-0.002 0.006-0.004 0.010-0.005 0.043-0.020 0.086-0.039 0.13-0.057 0.014-0.006 0.029-0.011 0.043-0.017 0.030-0.012 0.060-0.024 0.091-0.035 0.017-0.006 0.035-0.012 0.053-0.018 0.027-0.009 0.055-0.019 0.084-0.028 0.019-0.006 0.038-0.011 0.057-0.017 0.027-0.008 0.055-0.016 0.082-0.023 0.020-0.005 0.040-0.010 0.060-0.015 0.027-0.007 0.055-0.013 0.083-0.018 0.020-0.004 0.040-0.009 0.061-0.013 0.028-0.005 0.056-0.010 0.085-0.015 0.020-0.004 0.040-0.007 0.061-0.009 0.029-0.004 0.059-0.008 0.090-0.011 0.019-0.002 0.038-0.005 0.058-0.006 0.033-0.003 0.067-0.006 0.1-0.007 0.016-0.001 0.033-0.003 0.049-0.003 0.050-0.003 0.1-0.004 0.151-0.004s0.101 0.001 0.151 0.004c0.017 0 0.033 0.002 0.049 0.003 0.033 0.002 0.067 0.004 0.1 0.007 0.019 0.002 0.039 0.004 0.058 0.006 0.030 0.004 0.060 0.007 0.090 0.011 0.021 0.003 0.040 0.006 0.060 0.009 0.029 0.004 0.057 0.009 0.085 0.015 0.021 0.004 0.041 0.008 0.061 0.013 0.028 0.006 0.055 0.012 0.083 0.018 0.020 0.005 0.040 0.010 0.060 0.015 0.027 0.007 0.055 0.015 0.082 0.023 0.019 0.006 0.038 0.011 0.057 0.017 0.028 0.009 0.056 0.018 0.084 0.028 0.018 0.006 0.036 0.012 0.053 0.018 0.031 0.011 0.061 0.023 0.091 0.035 0.014 0.006 0.029 0.011 0.043 0.017 0.044 0.018 0.087 0.037 0.13 0.057 0.004 0.002 0.007 0.003 0.010 0.005 0.040 0.019 0.078 0.038 0.117 0.058 0.014 0.007 0.028 0.015 0.042 0.023 0.027 0.015 0.054 0.030 0.081 0.046 0.016 0.009 0.032 0.019 0.048 0.029 0.024 0.015 0.048 0.030 0.072 0.045 0.016 0.011 0.032 0.022 0.049 0.033 0.023 0.015 0.045 0.031 0.067 0.047 0.016 0.011 0.032 0.023 0.048 0.035 0.022 0.016 0.044 0.033 0.065 0.050 0.016 0.012 0.031 0.025 0.046 0.037 0.021 0.017 0.042 0.035 0.063 0.053 0.015 0.013 0.029 0.025 0.044 0.038 0.021 0.019 0.042 0.039 0.063 0.059 0.013 0.012 0.026 0.024 0.039 0.037 0.023 0.022 0.045 0.046 0.067 0.069 0.010 0.010 0.020 0.020 0.030 0.031 0.031 0.034 0.062 0.068 0.092 0.104 0.004 0.005 0.008 0.010 0.012 0.015 0.025 0.031 0.051 0.062 0.075 0.094 0.010 0.013 0.019 0.026 0.029 0.039 0.018 0.024 0.036 0.049 0.054 0.074 0.010 0.015 0.021 0.031 0.031 0.046 0.016 0.023 0.031 0.046 0.046 0.070 0.010 0.017 0.021 0.033 0.031 0.050 0.014 0.023 0.028 0.047 0.042 0.070 0.010 0.017 0.019 0.035 0.029 0.052 0.013 0.024 0.026 0.048 0.038 0.072 0.009 0.018 0.017 0.035 0.026 0.053 0.012 0.025 0.023 0.050 0.035 0.076 0.008 0.017 0.016 0.035 0.023 0.052 0.012 0.027 0.022 0.054 0.033 0.081 0.006 0.016 0.013 0.033 0.019 0.050 0.012 0.031 0.022 0.063 0.033 0.095 0.004 0.013 0.009 0.026 0.013 0.039 0.014 0.045 0.027 0.091 0.040 0.136 0.002 0.007 0.003 0.015 0.005 0.022 0.010 0.039 0.019 0.078 0.028 0.117 0.004 0.016 0.006 0.032 0.009 0.048 0.005 0.025 0.010 0.049 0.015 0.074h8.717v-14.625c0-0.272 0.226-0.492 0.504-0.492h7.293c0.012 0 0.051 0 0.075-0.044s0.003-0.074-0.004-0.084l-1.578-2.31c-0.153-0.224-0.408-0.357-0.684-0.357h-13.172c-0.073 0-0.142 0.028-0.195 0.079l-0.834 0.814c-0.242 0.237-0.565 0.367-0.908 0.367h-8.686c-0.45 0-0.817 0.357-0.817 0.797v12.627z"></path>
<path d="M14.081 9.838h3.191c0.644 0 1.169 0.511 1.169 1.14v10.532c0 0.272-0.226 0.492-0.504 0.492h-4.52c-0.278 0-0.504-0.22-0.504-0.492v-10.532c-0-0.629 0.524-1.14 1.169-1.14zM13.921 21.019h3.511v-5.787h-3.511v5.787zM13.921 14.248h3.511v-3.269c0-0.086-0.072-0.156-0.16-0.156h-3.191c-0.088 0-0.16 0.070-0.16 0.156v3.269h0zM3.875 9.838h6.17c0.713 0 1.293 0.566 1.293 1.262v2.87c0 0.696-0.58 1.262-1.293 1.262h-6.17c-0.713 0-1.293-0.566-1.293-1.262v-2.87c0-0.696 0.581-1.262 1.294-1.262zM3.59 13.97c0 0.153 0.127 0.278 0.284 0.278h6.17c0.157 0 0.284-0.124 0.284-0.278v-2.87c0-0.153-0.128-0.278-0.284-0.278h-6.17c-0.157 0-0.284 0.124-0.284 0.278v2.87h0z"></path>
</symbol>
<symbol id="icon-Container" viewBox="0 0 32 32">
<path stroke-linejoin="round" stroke-linecap="round" stroke-miterlimit="4" stroke-width="2.4" d="M22.667 14.667h2c0.53 0 1.039-0.211 1.414-0.586s0.586-0.884 0.586-1.414-0.211-1.039-0.586-1.414c-0.375-0.375-0.884-0.586-1.414-0.586h-2v6.667M22.667 22.667v5.333h1.333c0.707 0 1.386-0.281 1.886-0.781s0.781-1.178 0.781-1.886c0-0.707-0.281-1.385-0.781-1.886s-1.178-0.781-1.886-0.781h-1.333zM4 6.667c0 0.707 0.281 1.386 0.781 1.886s1.178 0.781 1.886 0.781c0.707 0 1.386-0.281 1.886-0.781s0.781-1.178 0.781-1.886c0-0.707-0.281-1.386-0.781-1.886s-1.178-0.781-1.886-0.781c-0.707 0-1.386 0.281-1.886 0.781s-0.781 1.178-0.781 1.886z"></path>
<path stroke-linejoin="round" stroke-linecap="round" stroke-miterlimit="4" stroke-width="2.4" d="M6.667 9.333v4c0 0.354 0.14 0.693 0.391 0.943s0.589 0.391 0.943 0.391h4M12 14.667v9.333c0 0.354 0.14 0.693 0.391 0.943s0.589 0.39 0.943 0.39h4M12 14.667h5.333"></path>
</symbol>
<symbol id="icon-Container-1" viewBox="0 0 32 32">
<path stroke-linejoin="round" stroke-linecap="round" stroke-miterlimit="4" stroke-width="2.24" d="M3 26v-7c0.003-1.060 0.426-2.076 1.175-2.825s1.765-1.172 2.825-1.175h18c1.060 0.003 2.076 0.426 2.825 1.175s1.172 1.765 1.175 2.825v7M24 15h-18v-6.5c0.002-0.662 0.266-1.297 0.734-1.766s1.103-0.732 1.766-0.734h15c0.662 0.002 1.297 0.266 1.766 0.734s0.732 1.103 0.734 1.766v6.5h-2z"></path>
<path stroke-linejoin="round" stroke-linecap="round" stroke-miterlimit="4" stroke-width="2.24" d="M3 26v-0.5c0.001-0.397 0.16-0.778 0.441-1.059s0.662-0.44 1.059-0.441h23c0.397 0.001 0.778 0.16 1.059 0.441s0.44 0.662 0.441 1.059v0.5M7 15v-1c0.002-0.53 0.213-1.038 0.587-1.413s0.883-0.586 1.413-0.587h5c0.53 0.002 1.038 0.213 1.413 0.587s0.586 0.883 0.587 1.413M16 14v1M16 14c0.001-0.53 0.213-1.038 0.587-1.413s0.883-0.586 1.413-0.587h5c0.53 0.002 1.038 0.213 1.413 0.587s0.586 0.883 0.587 1.413v1"></path>
</symbol>
<symbol id="icon-Horizontal-container" viewBox="0 0 32 32">
<path stroke-linejoin="round" stroke-linecap="round" stroke-miterlimit="4" stroke-width="2.4" d="M25.333 20v-16c-6.421 6.125-6.697 11.092-6.667 16h6.667zM25.333 20v8h-1.333v-4M10.667 5.333v22.667M6.667 5.333v4c0 1.061 0.421 2.078 1.172 2.828s1.768 1.172 2.828 1.172c1.061 0 2.078-0.421 2.828-1.172s1.172-1.768 1.172-2.828v-4"></path>
</symbol>
<symbol id="icon-map-pin" viewBox="0 0 32 32">
<path stroke-linejoin="round" stroke-linecap="round" stroke-miterlimit="4" stroke-width="2.4" d="M28 13.333c0 9.333-12 17.333-12 17.333s-12-8-12-17.333c0-3.183 1.264-6.235 3.515-8.485s5.303-3.515 8.485-3.515c3.183 0 6.235 1.264 8.485 3.515s3.515 5.303 3.515 8.485z"></path>
<path stroke-linejoin="round" stroke-linecap="round" stroke-miterlimit="4" stroke-width="2.4" d="M16 17.333c2.209 0 4-1.791 4-4s-1.791-4-4-4c-2.209 0-4 1.791-4 4s1.791 4 4 4z"></path>
</symbol>
<symbol id="icon-Property-1Default" viewBox="0 0 32 32">
<path stroke-linejoin="round" stroke-linecap="round" stroke-miterlimit="4" stroke-width="3.0667" d="M27.787 6.147c-0.681-0.681-1.49-1.222-2.379-1.591s-1.844-0.559-2.807-0.559-1.917 0.19-2.807 0.559c-0.89 0.369-1.699 0.909-2.38 1.591l-1.413 1.413-1.413-1.413c-1.376-1.376-3.241-2.148-5.187-2.148s-3.811 0.773-5.187 2.148c-1.376 1.376-2.148 3.241-2.148 5.187s0.773 3.811 2.148 5.187l11.787 11.787 11.787-11.787c0.681-0.681 1.222-1.49 1.591-2.38s0.559-1.844 0.559-2.807-0.19-1.917-0.559-2.807c-0.369-0.89-0.909-1.699-1.591-2.38z"></path>
</symbol>
<symbol id="icon-Raiting" viewBox="0 0 32 32">
<path fill="#ffc531" style="fill: var(--color1, #ffc531); stroke: var(--color1, #ffc531)" stroke="#ffc531" stroke-linejoin="miter" stroke-linecap="butt" stroke-miterlimit="4" stroke-width="2.4" d="M12.4 10.394l3.6-6.822 3.6 6.822c0.318 0.603 0.899 1.025 1.571 1.141l7.601 1.315-5.376 5.532c-0.475 0.489-0.697 1.171-0.6 1.846l1.098 7.635-6.922-3.404c-0.612-0.301-1.329-0.301-1.941 0l-6.922 3.404 1.098-7.635c0.097-0.675-0.125-1.357-0.6-1.846l-5.376-5.532 7.601-1.315c0.672-0.116 1.252-0.538 1.571-1.141z"></path>
</symbol>
<symbol id="icon-Rating" viewBox="0 0 32 32">
<path stroke-linejoin="round" stroke-linecap="round" stroke-miterlimit="4" stroke-width="2" d="M5.333 5.333l3.333 3.333M18 8.667c-1.242-1.217-2.914-1.895-4.653-1.886s-3.404 0.703-4.634 1.933-1.924 2.895-1.933 4.634c-0.009 1.739 0.669 3.411 1.886 4.653M20 6.667l-13.333 13.333M18.667 22.667v0.013M13.333 21.333v0.013M17.333 17.333v0.013M21.333 13.333v0.013M14.667 26.667v0.013M22.667 18.667v0.013M26.667 14.667v0.013"></path>
</symbol>
<symbol id="icon-Route" viewBox="0 0 32 32">
<path d="M6.667 4c-1.473 0-2.667 1.194-2.667 2.667s1.194 2.667 2.667 2.667c1.473 0 2.667-1.194 2.667-2.667s-1.194-2.667-2.667-2.667zM1.333 6.667c0-2.946 2.388-5.333 5.333-5.333s5.333 2.388 5.333 5.333c0 2.946-2.388 5.333-5.333 5.333s-5.333-2.388-5.333-5.333z"></path>
<path d="M25.333 22.667c-1.473 0-2.667 1.194-2.667 2.667s1.194 2.667 2.667 2.667c1.473 0 2.667-1.194 2.667-2.667s-1.194-2.667-2.667-2.667zM20 25.333c0-2.945 2.388-5.333 5.333-5.333s5.333 2.388 5.333 5.333c0 2.946-2.388 5.333-5.333 5.333s-5.333-2.388-5.333-5.333z"></path>
<path d="M13.333 6.667c0-0.736 0.597-1.333 1.333-1.333h8.4c4.13 0 5.62 5.404 1.987 7.429l-15.473 8.804c-1.16 0.644-0.782 2.434 0.686 2.434h7.067c0.736 0 1.333 0.597 1.333 1.333s-0.597 1.333-1.333 1.333h-7.067c-4.13 0-5.619-5.404-1.987-7.429l15.473-8.804c1.16-0.644 0.782-2.434-0.686-2.434h-8.4c-0.736 0-1.333-0.597-1.333-1.333z"></path>
</symbol>
<symbol id="icon-Users" viewBox="0 0 32 32">
<path d="M9.067 24.133h-4.4c-0.267 0-0.4-0.133-0.533-0.267s-0.267-0.4-0.133-0.667c0.8-2.267 2.8-3.6 5.067-3.6 2.8 0 5.067-2.4 5.067-5.2s-2.267-5.467-5.067-5.467c-2.8 0-5.067 2.4-5.067 5.333 0 1.333 0.533 2.667 1.333 3.6-1.733 0.933-3.067 2.4-3.867 4.4-0.267 0.933-0.133 2.133 0.533 3.067s1.6 1.467 2.667 1.467h4.4c0.8 0 1.333-0.533 1.333-1.333s-0.533-1.333-1.333-1.333zM6.667 14.267c0-1.467 1.067-2.533 2.4-2.533s2.4 1.2 2.4 2.533c0 1.467-1.067 2.533-2.4 2.533s-2.4-1.2-2.4-2.533z"></path>
<path d="M30.533 21.467c-0.933-2.533-2.8-4.4-4.933-5.467 1.2-1.067 1.867-2.667 1.867-4.533 0-3.467-2.667-6.267-5.867-6.267s-5.867 2.8-5.867 6.267c0 1.733 0.667 3.333 1.867 4.533-2.133 1.067-4 2.933-4.933 5.467-0.667 1.2-0.4 2.533 0.267 3.6s1.867 1.6 3.067 1.6h11.067c1.2 0 2.4-0.667 3.067-1.6 0.8-1.067 0.933-2.4 0.4-3.6zM18.267 11.6c0-2 1.467-3.6 3.2-3.6s3.2 1.6 3.2 3.6-1.467 3.6-3.2 3.6c-1.733 0-3.2-1.733-3.2-3.6zM27.867 23.6c-0.133 0.133-0.4 0.533-0.8 0.533h-11.067c-0.533 0-0.8-0.4-0.8-0.533-0.133-0.133-0.4-0.667-0.133-1.2 1.067-2.8 3.733-4.667 6.533-4.667s5.467 1.867 6.533 4.667c0.133 0.533-0.133 1.067-0.267 1.2z"></path>
</symbol>
<symbol id="icon-wind" viewBox="0 0 32 32">
    <path d="M15.5537 5.3C14.2027 5.30031 12.8935 5.7805 11.8487 6.65893C10.8038 7.53736 10.0879 8.75981 9.8225 10.1185L9.7181 10.6575C9.69035 10.7781 9.68654 10.9032 9.70692 11.0253C9.7273 11.1474 9.77143 11.2641 9.8367 11.3683C9.90197 11.4726 9.98703 11.5623 10.0868 11.6321C10.1866 11.702 10.2991 11.7505 10.4175 11.7748C10.536 11.7991 10.658 11.7986 10.7763 11.7736C10.8946 11.7485 11.0067 11.6992 11.1061 11.6287C11.2054 11.5582 11.2899 11.468 11.3545 11.3633C11.4191 11.2586 11.4625 11.1416 11.4821 11.0194L11.5883 10.4822C11.7878 9.47479 12.3447 8.57922 13.1512 7.96889C13.9576 7.35856 14.9562 7.07691 15.9536 7.17849C16.9509 7.28006 17.876 7.75764 18.5497 8.51872C19.2233 9.2798 19.5976 10.2702 19.6001 11.2982C19.6001 12.4 19.1735 13.4567 18.414 14.236C17.6545 15.0153 16.6244 15.4534 15.5501 15.4538H2.5001C2.2614 15.4538 2.03248 15.5511 1.8637 15.7242C1.69492 15.8973 1.6001 16.1321 1.6001 16.3769C1.6001 16.6217 1.69492 16.8565 1.8637 17.0296C2.03248 17.2027 2.2614 17.3 2.5001 17.3H15.5501C17.0765 17.2616 18.5278 16.6129 19.5944 15.4923C20.6609 14.3716 21.2581 12.8678 21.2586 11.3018C21.259 9.73579 20.6627 8.23161 19.5969 7.11028C18.531 5.98896 17.0801 5.33932 15.5537 5.3ZM25.9001 13.6077C24.7066 13.6077 23.562 14.094 22.7181 14.9595C21.8742 15.8251 21.4001 16.999 21.4001 18.2231C21.4001 18.4679 21.4949 18.7027 21.6637 18.8758C21.8325 19.0489 22.0614 19.1462 22.3001 19.1462C22.5388 19.1462 22.7677 19.0489 22.9365 18.8758C23.1053 18.7027 23.2001 18.4679 23.2001 18.2231C23.2001 17.6754 23.3584 17.14 23.6551 16.6846C23.9518 16.2292 24.3735 15.8742 24.8669 15.6646C25.3602 15.455 25.9031 15.4002 26.4268 15.5071C26.9506 15.6139 27.4317 15.8777 27.8093 16.2649C28.1869 16.6522 28.444 17.1456 28.5482 17.6828C28.6524 18.22 28.5989 18.7768 28.3946 19.2828C28.1902 19.7888 27.8441 20.2213 27.4001 20.5256C26.9561 20.8299 26.4341 20.9923 25.9001 20.9923H2.5001C2.2614 20.9923 2.03248 21.0896 1.8637 21.2627C1.69492 21.4358 1.6001 21.6706 1.6001 21.9154C1.6001 22.1602 1.69492 22.395 1.8637 22.5681C2.03248 22.7412 2.2614 22.8385 2.5001 22.8385H20.0501C20.6468 22.8397 21.2187 23.084 21.6398 23.5176C22.0609 23.9513 22.2968 24.5387 22.2956 25.1508C22.2944 25.7628 22.0562 26.3493 21.6334 26.7812C21.2106 27.2131 20.6378 27.4551 20.0411 27.4538C19.5036 27.4542 18.9832 27.2594 18.5724 26.9039C18.1615 26.5484 17.8867 26.0552 17.7965 25.5117L17.7875 25.4563C17.7713 25.3339 17.7313 25.216 17.6699 25.1097C17.6085 25.0034 17.5269 24.9108 17.43 24.8375C17.333 24.7641 17.2227 24.7115 17.1056 24.6826C16.9884 24.6538 16.8668 24.6494 16.748 24.6697C16.6291 24.69 16.5155 24.7345 16.4137 24.8007C16.312 24.8668 16.2242 24.9533 16.1557 25.0549C16.0871 25.1565 16.0391 25.2711 16.0145 25.3921C15.99 25.5131 15.9894 25.6379 16.0127 25.7591L16.0217 25.8145C16.1817 26.7891 16.6733 27.674 17.4091 28.3121C18.145 28.9502 19.0775 29.3002 20.0411 29.3C21.1162 29.3005 22.1475 28.8633 22.9086 28.0845C23.6696 27.3056 24.0982 26.2488 24.1001 25.1462C24.1001 24.2914 23.8481 23.4975 23.4179 22.8385H25.9001C27.0936 22.8385 28.2382 22.3522 29.0821 21.4866C29.926 20.6211 30.4001 19.4472 30.4001 18.2231C30.4001 16.999 29.926 15.8251 29.0821 14.9595C28.2382 14.094 27.0936 13.6077 25.9001 13.6077Z"  />

</symbol>

<symbol id="icon-Vertical-container" viewBox="0 0 32 32">
<path d="M26.36 9.64l0.013-0.013-4.96-4.96-1.413 1.413 2.813 2.813c-1.253 0.48-2.147 1.68-2.147 3.107 0 0.438 0.086 0.871 0.254 1.276s0.413 0.772 0.723 1.081c0.625 0.625 1.473 0.976 2.357 0.976 0.48 0 0.92-0.107 1.333-0.28v9.613c0 0.354-0.14 0.693-0.391 0.943s-0.589 0.391-0.943 0.391c-0.354 0-0.693-0.14-0.943-0.391s-0.391-0.589-0.391-0.943v-6c0-0.707-0.281-1.386-0.781-1.886s-1.178-0.781-1.886-0.781h-1.333v-9.333c0-0.707-0.281-1.386-0.781-1.886s-1.178-0.781-1.886-0.781h-8c-0.707 0-1.386 0.281-1.886 0.781s-0.781 1.178-0.781 1.886v21.333h13.333v-10h2v6.667c0 0.884 0.351 1.732 0.976 2.357s1.473 0.976 2.357 0.976c0.438 0 0.871-0.086 1.276-0.254s0.772-0.413 1.081-0.723c0.309-0.309 0.555-0.677 0.723-1.081s0.254-0.838 0.254-1.276v-12.667c0-0.92-0.373-1.76-0.973-2.36zM16 18v7.333h-8v-9.333h8v2zM16 13.333h-8v-6.667h8v6.667zM24 13.333c-0.354 0-0.693-0.14-0.943-0.39s-0.391-0.589-0.391-0.943 0.14-0.693 0.391-0.943c0.25-0.25 0.589-0.39 0.943-0.39s0.693 0.14 0.943 0.39c0.25 0.25 0.391 0.589 0.391 0.943s-0.14 0.693-0.391 0.943c-0.25 0.25-0.589 0.39-0.943 0.39z"></path>
</symbol>
<symbol id="icon-Vertical-container-1" viewBox="0 0 32 32">
<path stroke-linejoin="round" stroke-linecap="round" stroke-miterlimit="4" stroke-width="1.8" d="M24 26h-16c-2.216 0-4-1.784-4-4v-10c0-2.216 1.784-4 4-4h16c2.216 0 4 1.784 4 4v10c0 2.216-1.784 4-4 4z"></path>
<path stroke-linejoin="round" stroke-linecap="round" stroke-miterlimit="4" stroke-width="1.8" d="M12 30h8"></path>
<path stroke-linejoin="round" stroke-linecap="round" stroke-miterlimit="4" stroke-width="1.8" d="M16 8l6-6"></path>
<path stroke-linejoin="round" stroke-linecap="round" stroke-miterlimit="4" stroke-width="1.8" d="M16 8l-6-6"></path>
</symbol>
</defs>
</svg>
